<svg width="24" height="24" viewBox="0 0 24 24" fill="none" xmlns="http://www.w3.org/2000/svg">
<circle cx="12" cy="12" r="12" fill="black"/>
<path d="M8.82228 12.4667C9.59279 10.5989 11.4371 8.55707 11.9996 7.95969V7.3205L11.8343 7.48734C11.7153 7.60747 9.5512 9.81091 8.53886 11.9918C8.45579 12.1708 8.3808 12.3494 8.31503 12.5269C8.13421 13.0148 8.02368 13.4931 8.02368 13.937C8.02368 16.9958 11.4936 17.566 11.5286 17.5714L11.7933 17.6122L11.3285 17.0842C10.5637 16.896 8.47926 16.1773 8.47926 13.937C8.47926 13.6217 8.54222 13.284 8.65163 12.9348C8.67513 12.8582 8.80326 12.5282 8.82228 12.4667Z" fill="white"/>
<path d="M6.4771 12.8848C6.4771 11.9556 6.6451 10.9211 7.37599 9.75586C7.43115 9.31123 7.53846 8.87569 7.71921 8.46454C6.32801 10.0456 6 11.7496 6 12.8848C6 16.933 9.51356 18.754 12.0085 18.754V18.2978C9.71168 18.2978 6.4771 16.6184 6.4771 12.8848Z" fill="white"/>
<path d="M11.9995 4.57268V4L11.8534 4.11685C11.8122 4.14984 10.831 4.93865 9.83403 6.08017C8.47795 7.63295 7.79041 9.02486 7.79041 10.2172C7.79041 10.4662 7.79982 10.7153 7.82489 10.9631C7.84653 11.1771 7.87994 11.3903 7.93102 11.5998C7.97627 11.7853 8.03561 11.9679 8.11277 12.1437C8.16508 12.2627 8.22147 12.3782 8.29333 12.4876C8.36025 12.5895 8.4345 12.6869 8.51525 12.7792C8.68717 12.9755 8.88903 13.1333 9.10045 13.2884C9.20889 13.368 9.32099 13.4502 9.42374 13.5366C10.593 14.5202 11.2474 15.7403 11.3284 17.0798L11.7931 17.6077L11.7925 17.3514C11.7886 15.7765 11.0735 14.3443 9.7247 13.2096C9.61047 13.1135 9.49213 13.0267 9.37767 12.9428C9.27551 12.8678 9.17309 12.793 9.0759 12.7121C9.02848 12.6726 8.98241 12.6317 8.9385 12.5887C8.91683 12.5675 8.89568 12.5457 8.87524 12.5234C8.80346 12.445 8.74001 12.3598 8.68332 12.2709C8.62533 12.1799 8.58224 12.0851 8.53871 11.9873C8.33809 11.5368 8.24598 10.9707 8.24598 10.2173C8.24594 7.89545 11.2901 5.17492 11.9995 4.57268Z" fill="white"/>
<path d="M15.1607 12.4667C14.3903 10.5989 12.5459 8.55707 11.9834 7.95969V7.3205L12.1487 7.48734C12.2677 7.60747 14.4318 9.81091 15.4442 11.9918C15.5273 12.1708 15.6022 12.3494 15.668 12.5269C15.8488 13.0148 15.9594 13.4931 15.9594 13.937C15.9594 16.9958 12.4895 17.566 12.4544 17.5714L12.1897 17.6122L12.6545 17.0842C13.4194 16.896 15.5038 16.1773 15.5038 13.937C15.5038 13.6217 15.4409 13.284 15.3315 12.9348C15.3079 12.8582 15.1798 12.5282 15.1607 12.4667Z" fill="white"/>
<path d="M17.5229 12.8848C17.5229 11.9556 17.355 10.9211 16.624 9.75586C16.5689 9.31123 16.4616 8.87569 16.2808 8.46454C17.672 10.0456 18.0001 11.7496 18.0001 12.8848C18.0001 16.933 14.4865 18.754 11.9916 18.754V18.2978C14.2884 18.2978 17.5229 16.6184 17.5229 12.8848Z" fill="white"/>
<path d="M11.9834 4.57268V4L12.1295 4.11685C12.1708 4.14984 13.1519 4.93865 14.1489 6.08017C15.505 7.63295 16.1925 9.02486 16.1925 10.2172C16.1925 10.4662 16.1831 10.7153 16.158 10.9631C16.1364 11.1771 16.103 11.3903 16.0519 11.5998C16.0066 11.7853 15.9473 11.9679 15.8701 12.1437C15.8179 12.2627 15.7614 12.3782 15.6896 12.4876C15.6227 12.5895 15.5484 12.6869 15.4677 12.7792C15.2958 12.9755 15.0939 13.1333 14.8825 13.2884C14.7741 13.368 14.662 13.4502 14.5592 13.5366C13.39 14.5202 12.7355 15.7403 12.6545 17.0798L12.1898 17.6077L12.1904 17.3514C12.1943 15.7765 12.9093 14.3443 14.2582 13.2096C14.3724 13.1135 14.4908 13.0267 14.6052 12.9428C14.7074 12.8678 14.8098 12.793 14.907 12.7121C14.9544 12.6726 15.0005 12.6317 15.0444 12.5887C15.0661 12.5675 15.0872 12.5457 15.1076 12.5234C15.1795 12.445 15.2429 12.3598 15.2996 12.2709C15.3576 12.1799 15.4007 12.0851 15.4442 11.9873C15.6448 11.5368 15.737 10.9707 15.737 10.2173C15.737 7.89545 12.6927 5.17492 11.9834 4.57268Z" fill="white"/>
</svg>
