<svg width="35" height="35" viewBox="0 0 35 35" fill="none" xmlns="http://www.w3.org/2000/svg">
<circle cx="17.5" cy="17.5" r="17.5" fill="#3F3456"/>
<path d="M9.09595 13.7137V17.2492H15.2878V19.7336H9.09595V24.6069H6V11.2293H16.1096V13.7137H9.09595Z" fill="white"/>
<path d="M24.477 24.8362C23.1138 24.8362 21.8779 24.5432 20.7695 23.9571C19.6738 23.3583 18.8075 22.5365 18.1704 21.4918C17.5461 20.4344 17.234 19.2431 17.234 17.9181C17.234 16.5931 17.5461 15.4082 18.1704 14.3635C18.8075 13.306 19.6738 12.4843 20.7695 11.8982C21.8779 11.2994 23.1201 11 24.4961 11C25.6555 11 26.7002 11.2038 27.6303 11.6115C28.5731 12.0192 29.363 12.6053 30 13.3697L28.0125 15.2044C27.1079 14.1596 25.9867 13.6373 24.649 13.6373C23.8209 13.6373 23.0819 13.822 22.4321 14.1915C21.7824 14.5482 21.2727 15.0515 20.9033 15.7013C20.5465 16.351 20.3682 17.09 20.3682 17.9181C20.3682 18.7462 20.5465 19.4852 20.9033 20.135C21.2727 20.7847 21.7824 21.2943 22.4321 21.6638C23.0819 22.0205 23.8209 22.1989 24.649 22.1989C25.9867 22.1989 27.1079 21.6702 28.0125 20.6127L30 22.4474C29.363 23.2245 28.5731 23.817 27.6303 24.2247C26.6875 24.6324 25.6364 24.8362 24.477 24.8362Z" fill="white"/>
</svg>
