<svg width="24" height="24" viewBox="0 0 24 24" fill="none" xmlns="http://www.w3.org/2000/svg">
<circle cx="12" cy="12" r="12" fill="#2289DD"/>
<path d="M9.36636 15.52C9.36636 15.9447 9.43805 16.2399 9.58141 16.4056C9.72477 16.5609 9.98078 16.6386 10.3494 16.6386V16.9649C9.28444 16.9235 8.59834 16.9027 8.29113 16.9027C7.94296 16.9027 7.23638 16.9235 6.17139 16.9649V16.6386C6.5298 16.6386 6.78069 16.5609 6.92405 16.4056C7.07765 16.2399 7.15446 15.9447 7.15446 15.52V6.66434C7.15446 6.18789 7.07765 5.84092 6.92405 5.62341C6.78069 5.4059 6.5298 5.29715 6.17139 5.29715V4.97089C6.49908 5.00196 6.81653 5.0175 7.12374 5.0175C8.01464 5.0175 8.76219 4.94499 9.36636 4.79999V15.52Z" fill="white"/>
<path d="M17.3315 8.97924C17.8435 8.97924 18.2378 8.96371 18.5142 8.93263V9.24336C18.2992 9.3055 18.1046 9.44015 17.9305 9.6473C17.7667 9.8441 17.608 10.1548 17.4544 10.5795L14.7048 18.3942C14.5 18.9328 14.2748 19.3005 14.029 19.4973C13.732 19.7562 13.2866 19.8857 12.6926 19.8857C12.2625 19.8857 11.8734 19.7769 11.5252 19.5594C11.1873 19.3523 11.0183 19.0467 11.0183 18.6428C11.0183 18.3217 11.131 18.0628 11.3563 17.866C11.5816 17.6796 11.8785 17.5863 12.2472 17.5863C12.5953 17.5863 12.8718 17.6692 13.0766 17.8349C13.2917 18.011 13.3992 18.2544 13.3992 18.5651C13.3992 18.7826 13.3326 18.9794 13.1995 19.1555C13.0664 19.3419 12.877 19.4818 12.6312 19.575C12.7029 19.5853 12.8206 19.5905 12.9845 19.5905C13.6194 19.5905 14.0853 19.1814 14.3823 18.3631L14.628 17.6174L11.3716 10.1289C11.2078 9.77677 11.0491 9.54373 10.8955 9.42979C10.7418 9.31586 10.5831 9.2589 10.4193 9.2589V8.93263C11.0951 8.99478 11.7966 9.02585 12.5237 9.02585C13.1278 9.02585 13.8395 8.99478 14.6588 8.93263V9.2589C14.3311 9.2589 14.0853 9.28479 13.9215 9.33658C13.7679 9.37801 13.6911 9.49712 13.6911 9.69391C13.6911 9.80784 13.7269 9.95285 13.7986 10.1289L15.6726 14.7121L16.7324 11.7292C16.8963 11.2424 16.9782 10.8281 16.9782 10.4863C16.9782 9.73016 16.5993 9.31586 15.8415 9.24336V8.93263C16.3228 8.96371 16.8195 8.97924 17.3315 8.97924Z" fill="white"/>
</svg>
