<svg width="32" height="32" viewBox="0 0 32 32" fill="none" xmlns="http://www.w3.org/2000/svg">
<path d="M0 16C0 7.16344 7.16344 0 16 0C24.8366 0 32 7.16344 32 16C32 24.8366 24.8366 32 16 32C7.16344 32 0 24.8366 0 16Z" fill="white"/>
<path d="M25.5304 15.8657C25.5304 18.1482 23.6463 19.9992 21.3179 19.9992C18.9872 19.9992 17.1019 18.1482 17.1019 15.8657C17.1019 13.5844 18.9872 11.7333 21.3179 11.7333C23.6463 11.7333 25.5304 13.5844 25.5304 15.8657Z" fill="#FF007F"/>
<path d="M14.8274 15.8657C14.8274 18.1482 12.9421 19.9992 10.6114 19.9992C8.28414 19.9992 6.40002 18.1482 6.40002 15.8657C6.40002 13.5844 8.28414 11.7333 10.6114 11.7333C12.9421 11.7333 14.8274 13.5844 14.8274 15.8657Z" fill="#0960D5"/>
</svg>
