<svg width="24" height="24" viewBox="0 0 24 24" fill="none" xmlns="http://www.w3.org/2000/svg">
<circle cx="12" cy="12" r="12" fill="#F72A81"/>
<path d="M9.63519 7.6372C9.81018 6.68856 10.6374 6 11.602 6H17.1268C18.3767 6 19.3204 7.13365 19.0936 8.3628L17.6619 16.1247C17.4869 17.0733 16.6597 17.7619 15.6951 17.7619H10.1702C8.92036 17.7619 7.97669 16.6283 8.20342 15.3991L9.63519 7.6372Z" fill="white"/>
<path d="M13.5479 9.89035L13.1738 11.7169H16.9027L16.5286 13.5316H12.8118L12.2325 16.3782H9.84314L11.5326 8.07565H18.1457L17.7716 9.89035H13.5479Z" fill="#F72A81"/>
<path d="M6.0614 10.3148H7.91886L6.85745 16.3782H5L6.0614 10.3148ZM7.25057 9.64354C6.92952 9.64354 6.67073 9.54286 6.47417 9.34149C6.27761 9.14013 6.17934 8.89028 6.17934 8.59196C6.17934 8.24143 6.28744 7.9543 6.50365 7.73056C6.72642 7.49936 7.01797 7.38376 7.37833 7.38376C7.70592 7.38376 7.96799 7.48071 8.16455 7.67462C8.36111 7.86107 8.45938 8.10346 8.45938 8.40178C8.45938 8.76722 8.348 9.06555 8.12524 9.29675C7.90248 9.52795 7.61092 9.64354 7.25057 9.64354Z" fill="white"/>
</svg>
