<svg width="16" height="16" viewBox="0 0 16 16" fill="none" xmlns="http://www.w3.org/2000/svg">
<g clip-path="url(#clip0_93_179)">
<path d="M5.30196 10.044C5.24862 10.1527 5.24862 10.26 5.24862 10.368C5.30196 10.7127 5.60062 10.966 5.94996 10.9613H6.81262V14.1453C6.81262 14.4693 6.54329 14.7387 6.21929 14.7387H4.38462C4.22769 14.7371 4.07766 14.674 3.96681 14.5629C3.85596 14.4518 3.79317 14.3016 3.79196 14.1447V10.962H0.661291C0.175957 10.962 -0.148043 10.476 0.0679575 10.044L4.70796 1.62601C4.7694 1.51516 4.85939 1.42278 4.96859 1.35845C5.07779 1.29412 5.20222 1.26019 5.32896 1.26019C5.4557 1.26019 5.58013 1.29412 5.68933 1.35845C5.79853 1.42278 5.88852 1.51516 5.94996 1.62601L7.89196 5.34935L5.30196 10.044ZM15.932 10.044L11.292 1.62601C11.2305 1.51532 11.1405 1.42309 11.0314 1.35887C10.9222 1.29466 10.7979 1.26079 10.6713 1.26079C10.5447 1.26079 10.4203 1.29466 10.3112 1.35887C10.2021 1.42309 10.1121 1.51532 10.0506 1.62601L8.05396 5.35001L10.644 10.0433C10.698 10.1527 10.698 10.2607 10.698 10.368C10.6446 10.7127 10.3453 10.966 9.99662 10.9613H9.13262V14.1453C9.13596 14.472 9.39929 14.7367 9.72596 14.7387H11.6686C11.8257 14.7373 11.9759 14.6744 12.0871 14.5634C12.1983 14.4525 12.2616 14.3024 12.2633 14.1453V10.962H15.338C15.8246 10.962 16.1473 10.476 15.9313 10.044H15.932Z" fill="#39E09B"/>
</g>
<defs>
<clipPath id="clip0_93_179">
<rect width="16" height="16" fill="white"/>
</clipPath>
</defs>
</svg>
