<svg width="64" height="64" viewBox="0 0 64 64" fill="none" xmlns="http://www.w3.org/2000/svg">
<g clip-path="url(#clip0_4_211)">
<path d="M21.208 40.176C20.9947 40.6107 20.9947 41.04 20.9947 41.472C21.208 42.8507 22.4027 43.864 23.8 43.8453H27.2507V56.5813C27.2507 57.8773 26.1733 58.9547 24.8773 58.9547H17.5387C16.911 58.9484 16.3108 58.6959 15.8674 58.2515C15.424 57.8071 15.1729 57.2064 15.168 56.5787V43.848H2.64535C0.704013 43.848 -0.591987 41.904 0.272013 40.176L18.832 6.504C19.0778 6.06058 19.4377 5.69104 19.8745 5.43373C20.3113 5.17641 20.8091 5.04071 21.316 5.04071C21.823 5.04071 22.3207 5.17641 22.7575 5.43373C23.1943 5.69104 23.5543 6.06058 23.8 6.504L31.568 21.3973L21.208 40.176ZM63.728 40.176L45.168 6.504C44.9221 6.06123 44.5622 5.6923 44.1256 5.43543C43.6891 5.17857 43.1918 5.04311 42.6853 5.04311C42.1789 5.04311 41.6816 5.17857 41.245 5.43543C40.8085 5.6923 40.4486 6.06123 40.2027 6.504L32.216 21.4L42.576 40.1733C42.792 40.6107 42.792 41.0427 42.792 41.472C42.5787 42.8507 41.3813 43.864 39.9867 43.8453H36.5307V56.5813C36.544 57.888 37.5973 58.9467 38.904 58.9547H46.6747C47.3029 58.9491 47.9039 58.6975 48.3486 58.2537C48.7934 57.81 49.0464 57.2095 49.0533 56.5813V43.848H61.352C63.2987 43.848 64.5893 41.904 63.7253 40.176H63.728Z" fill="white"/>
</g>
<defs>
<clipPath id="clip0_4_211">
<rect width="64" height="64" fill="white"/>
</clipPath>
</defs>
</svg>
