<svg width="24" height="24" viewBox="0 0 24 24" fill="none" xmlns="http://www.w3.org/2000/svg">
<circle cx="12" cy="12" r="12" fill="#F5F5F5"/>
<path d="M7.98702 6.02033C6.97844 6.1468 6.13426 6.56098 5.41972 7.28185C4.77789 7.92684 4.39216 8.60977 4.17084 9.49821C3.77879 11.038 4.06334 12.5556 5.00553 13.9815C5.60942 14.8952 6.39036 15.7331 7.82261 17.0104C8.73319 17.823 11.5123 20.1943 11.6483 20.2733C11.7747 20.3492 11.8222 20.3587 12.0909 20.3587C12.3597 20.3587 12.4071 20.3492 12.5336 20.2733C12.6695 20.1943 15.455 17.8198 16.3592 17.0104C17.7978 15.7268 18.5724 14.8921 19.1763 13.9815C20.1185 12.5556 20.403 11.038 20.011 9.49821C19.7897 8.60977 19.4039 7.92684 18.7621 7.28185C18.1235 6.64003 17.4405 6.27011 16.5458 6.08041C16.0968 5.98555 15.2684 5.97607 14.8764 6.0646C13.7824 6.30173 12.9446 6.8487 12.1794 7.82251L12.0909 7.93317L12.0056 7.82251C11.2499 6.86767 10.4247 6.32069 9.37185 6.08041C9.05884 6.00769 8.33797 5.97607 7.98702 6.02033Z" fill="#FF3F72"/>
<path d="M10.7534 10.1405C10.5495 10.1807 10.3125 10.2856 10.1452 10.4079C10.1104 10.4342 9.53874 10.9288 8.87475 11.5091C7.59557 12.6296 7.63391 12.5894 7.63391 12.7397C7.63391 12.8166 7.66005 12.862 7.80993 13.0526C8.40421 13.8042 9.05599 14.4054 9.74787 14.8424C10.3526 15.2235 10.9068 15.4472 11.529 15.5608C11.7398 15.5993 12.2574 15.6133 12.4735 15.5853C13.3693 15.4752 14.2581 15.0592 15.119 14.3513C15.5861 13.9685 16.0618 13.4721 16.4487 12.9652C16.5446 12.8393 16.5481 12.8323 16.5481 12.7257C16.5481 12.6296 16.5411 12.6086 16.4958 12.5544C16.44 12.4897 14.1413 10.4779 14.0211 10.3887C13.7841 10.2157 13.4564 10.1143 13.1323 10.1143C12.7855 10.1143 12.4805 10.2139 12.2051 10.4184L12.0953 10.4988L11.9873 10.4184C11.8026 10.2821 11.6056 10.1947 11.3686 10.1423C11.217 10.109 10.9138 10.1073 10.7534 10.1405ZM12.3428 12.1943C12.4056 12.2135 12.5554 12.3009 12.7611 12.4355C12.9371 12.5509 13.1149 12.6628 13.1567 12.6837L13.2334 12.7222L13.1305 12.7781C13.073 12.8096 12.8953 12.9232 12.7332 13.0316C12.4038 13.2483 12.2905 13.2955 12.0953 13.2955C11.8984 13.2955 11.7817 13.2483 11.4558 13.0298C11.2954 12.9232 11.1177 12.8113 11.0619 12.7799L10.9573 12.7222L11.034 12.6837C11.0758 12.6628 11.2519 12.5526 11.4244 12.439C11.5969 12.3254 11.7695 12.2205 11.8078 12.2048C11.9716 12.1401 12.1546 12.1366 12.3428 12.1943Z" fill="white"/>
</svg>
