<svg width="32" height="32" viewBox="0 0 32 32" fill="none" xmlns="http://www.w3.org/2000/svg">
<path d="M16 32C24.8366 32 32 24.8366 32 16C32 7.16344 24.8366 0 16 0C7.16344 0 0 7.16344 0 16C0 24.8366 7.16344 32 16 32Z" fill="#1FB6FF"/>
<path d="M14.5454 12.7159C15.6451 12.7278 13.7091 18.4041 13.9169 20.8718C14.1266 23.3614 16.8968 22.6446 16.721 21.2114C16.4218 18.7749 18.054 11.1401 19.7093 11.1401C20.8708 11.1401 18.423 16.4034 18.9046 19.7738C19.2233 22.0037 22.1157 21.2301 21.8217 19.908C20.8494 15.5323 23.8619 11.327 23.5243 8.34751C23.3767 7.04386 22.5882 6.40632 21.7996 6.40008C19.0384 6.37896 16.9055 12.0098 16.9055 12.0098C16.9055 12.0098 17.1276 8.80942 14.9816 8.69193C11.6959 8.51188 8.44322 16.6889 8.53536 23.9901C8.56473 26.3194 11.48 25.9227 11.3267 24.0656C11.0417 20.6119 12.978 12.6993 14.5454 12.7159Z" fill="white"/>
</svg>
