<svg width="64" height="64" viewBox="0 0 64 64" fill="none" xmlns="http://www.w3.org/2000/svg">
<g clip-path="url(#clip0_3_202)">
<path d="M60.2651 22.9644L48.5671 11.2426C46.1586 8.82917 42.9562 7.5 39.55 7.5C38.326 7.5 37.1288 7.67248 35.9849 8.00438C35.6188 8.11064 35.2582 8.23378 34.9039 8.37241C33.8747 8.77523 32.8992 9.31276 32 9.9775C31.1009 9.31276 30.1254 8.77523 29.0962 8.37241C28.7419 8.23386 28.3814 8.11064 28.0153 8.00438C26.8713 7.67248 25.674 7.5 24.45 7.5C21.0438 7.5 17.8414 8.82917 15.4329 11.2426L3.73509 22.9644C1.32647 25.3779 0 28.5868 0 32C0 35.4131 1.32647 38.6221 3.73509 41.0356L15.4329 52.7573C17.8414 55.1708 21.0438 56.5 24.45 56.5C25.674 56.5 26.8713 56.3274 28.0153 55.9955C29.4453 55.5808 30.7913 54.916 32 54.0225C33.2087 54.916 34.5549 55.5808 35.9848 55.9955C37.1287 56.3274 38.326 56.5 39.55 56.5C42.9562 56.5 46.1586 55.1708 48.567 52.7573L60.265 41.0356C62.6735 38.6221 64 35.4131 64 32C64.0001 28.5868 62.6736 25.3779 60.2651 22.9644ZM57.8879 34.0478C57.5596 35.121 56.9728 36.1044 56.1583 36.9205L44.4605 48.6422C43.646 49.4584 42.6646 50.0464 41.5937 50.3752C40.9399 50.576 40.2531 50.6804 39.55 50.6804C38.4152 50.6804 37.3224 50.4085 36.3442 49.8971C36.3369 49.8933 36.3353 49.8834 36.3412 49.8775L38.9814 47.2319L45.1651 41.0356C47.5737 38.6221 48.9001 35.4131 48.9001 32C48.9001 28.5868 47.5737 25.3779 45.5135 23.3136L43.8224 21.619C42.6884 20.4827 40.8497 20.4827 39.7157 21.619C38.5817 22.7553 38.5817 24.5977 39.7157 25.734L41.0584 27.0794C42.4087 28.4325 43.1345 30.2446 43.0905 32.1645C43.0489 33.986 42.2649 35.7116 40.9792 36.9999L34.8747 43.1169L32.0086 45.9888C32.0039 45.9935 31.9962 45.9935 31.9915 45.9888L29.1254 43.1169L23.021 36.9999C21.7353 35.7116 20.9513 33.9861 20.9095 32.1646C20.8655 30.2446 21.5914 28.4325 22.9417 27.0794L24.2844 25.734C25.4184 24.5977 25.4184 22.7553 24.2844 21.619C23.1503 20.4827 21.3117 20.4827 20.1777 21.619L18.4866 23.3136C16.4264 25.3779 15.0999 28.5868 15.0999 32C15.0999 35.4131 16.4264 38.6221 18.835 41.0356L25.0188 47.2319L27.6589 49.8775C27.6648 49.8834 27.6633 49.8933 27.6559 49.8971C26.6778 50.4085 25.5849 50.6804 24.45 50.6804C23.747 50.6804 23.0601 50.576 22.4064 50.3752C21.3354 50.0464 20.3541 49.4584 19.5395 48.6422L7.84175 36.9205C7.02722 36.1044 6.44038 35.121 6.11219 34.0478C5.9119 33.3929 5.80766 32.7045 5.80766 32C5.80766 31.2955 5.9119 30.6071 6.11219 29.9521C6.44038 28.879 7.02722 27.8956 7.84175 27.0794L19.5395 15.3578C20.3541 14.5416 21.3354 13.9535 22.4064 13.6248C23.0601 13.424 23.747 13.3195 24.45 13.3195C25.5907 13.3195 26.6888 13.5943 27.6708 14.1106C27.7934 14.1751 27.914 14.2438 28.0329 14.3159C28.0415 14.3211 28.0501 14.3263 28.0587 14.3316C28.1531 14.3893 28.2454 14.451 28.3372 14.5135C28.3399 14.5154 28.3425 14.5172 28.3452 14.5191C28.8207 14.847 29.0962 15.396 29.0962 15.9745V32.3491C29.0962 33.8834 30.2813 35.1404 31.7843 35.251C33.4973 35.3771 34.9039 33.9886 34.9039 32.2674V15.9745C34.9039 15.396 35.1794 14.847 35.655 14.5191C35.6576 14.5172 35.6602 14.5154 35.663 14.5135C35.7548 14.451 35.8469 14.3893 35.9414 14.3316C35.9499 14.3263 35.9586 14.3212 35.9672 14.3159C36.0861 14.2438 36.2066 14.1751 36.3294 14.1106C37.3113 13.5943 38.4094 13.3195 39.55 13.3195C40.2531 13.3195 40.9399 13.424 41.5937 13.6248C42.6647 13.9535 43.646 14.5416 44.4605 15.3578L56.1583 27.0794C56.9728 27.8956 57.5596 28.879 57.8879 29.9521C58.0881 30.6071 58.1923 31.2955 58.1923 32C58.1924 32.7045 58.0882 33.3929 57.8879 34.0478Z" fill="white"/>
</g>
<defs>
<clipPath id="clip0_3_202">
<rect width="64" height="64" fill="white"/>
</clipPath>
</defs>
</svg>
