<svg width="35" height="35" viewBox="0 0 35 35" fill="none" xmlns="http://www.w3.org/2000/svg">
<circle cx="17.5" cy="17.5" r="17.5" fill="#018BF1"/>
<path d="M11.1823 25.4569C10.1114 25.4569 9.27002 25.151 8.65808 24.539C8.0589 23.9271 7.75931 22.9518 7.75931 21.6132C7.75931 20.4786 7.96329 19.2037 8.37124 17.7886C8.7792 16.3735 9.37201 15.1624 10.1497 14.1553C10.9401 13.1481 11.8707 12.6446 12.9416 12.6446C13.3241 12.6446 13.6555 12.6956 13.936 12.7976C13.3751 13.129 12.8333 13.8111 12.3106 14.8437C11.8006 15.8763 11.3863 17.0301 11.0676 18.305C10.7489 19.5798 10.5895 20.7081 10.5895 21.6897C10.5895 22.3781 10.6787 22.9199 10.8572 23.3152C11.0357 23.7104 11.3162 23.908 11.6986 23.908C12.3233 23.908 12.9416 23.4618 13.5535 22.5694C14.1782 21.6642 14.6882 20.5296 15.0834 19.1655C15.4913 17.8014 15.6953 16.4883 15.6953 15.2262C15.6953 14.4357 15.6252 13.8047 15.485 13.333C15.3575 12.8485 15.1153 12.4852 14.7583 12.243C14.4013 12.0008 13.8978 11.8797 13.2476 11.8797C12.2659 11.8797 11.3544 12.0836 10.513 12.4916C9.6716 12.8868 8.99592 13.4605 8.48598 14.2126C7.98878 14.9521 7.74018 15.8126 7.74018 16.7942C7.74018 17.1385 7.77206 17.3934 7.8358 17.5592C7.89954 17.7121 7.93141 17.8014 7.93141 17.8269C7.29398 17.8269 6.80954 17.6994 6.47807 17.4444C6.15936 17.1894 6 16.7815 6 16.2206C6 15.3409 6.35696 14.4995 7.07088 13.6963C7.79755 12.8932 8.7537 12.243 9.93932 11.7458C11.1377 11.2486 12.3934 11 13.7065 11C15.3001 11 16.4539 11.4335 17.1678 12.3004C17.8817 13.1673 18.2387 14.3656 18.2387 15.8955C18.2387 17.2596 17.9837 18.681 17.4737 20.1599C16.9638 21.6387 16.1734 22.8945 15.1025 23.9271C14.0444 24.947 12.7376 25.4569 11.1823 25.4569Z" fill="white"/>
<path d="M22.848 12.5681C22.0449 12.5936 21.4266 12.8995 20.9931 13.486C20.5724 14.0724 20.3621 15.0859 20.3621 16.5265C20.3621 16.9982 20.4067 17.3297 20.4959 17.5209C20.5852 17.6994 20.6298 17.8014 20.6298 17.8269C19.9413 17.8269 19.425 17.6866 19.0808 17.4062C18.7494 17.113 18.5836 16.6349 18.5836 15.972C18.5836 15.0668 18.8067 14.2445 19.2529 13.5051C19.6991 12.7529 20.4067 12.1474 21.3756 11.6884C22.3572 11.2295 23.6002 11 25.1045 11C25.4105 11 25.8185 11.0319 26.3284 11.0956C27.2463 11.1849 27.8965 11.2295 28.2789 11.2295C28.9546 11.2295 29.5283 11.153 30 11C29.9618 11.1147 29.8916 11.3697 29.7896 11.7649C29.6877 12.1474 29.5028 12.4788 29.2351 12.7593C28.9801 13.027 28.6295 13.2055 28.1833 13.2947C27.4312 13.2947 26.5388 13.1736 25.5061 12.9314L24.703 16.7369H27.4949L27.1889 18.152H24.397L22.848 25.3422H20.0943L22.848 12.5681Z" fill="white"/>
</svg>
