<svg width="16" height="16" viewBox="0 0 16 16" fill="none" xmlns="http://www.w3.org/2000/svg">
<g clip-path="url(#clip0_93_176)">
<path d="M8 0C5.87827 0 3.84344 0.842855 2.34315 2.34315C0.842855 3.84344 0 5.87827 0 8C0 10.1217 0.842855 12.1566 2.34315 13.6569C3.84344 15.1571 5.87827 16 8 16C10.1217 16 12.1566 15.1571 13.6569 13.6569C15.1571 12.1566 16 10.1217 16 8C16 5.87827 15.1571 3.84344 13.6569 2.34315C12.1566 0.842855 10.1217 0 8 0V0ZM11.34 3.16267C11.7987 3.16267 12.1733 3.53667 12.1733 3.99533C12.171 4.21155 12.0847 4.41841 11.9327 4.5722C11.7807 4.72599 11.5749 4.81468 11.3587 4.81952C11.1425 4.82437 10.9329 4.745 10.7742 4.59817C10.6155 4.45135 10.52 4.24857 10.508 4.03267L8.77667 3.668L8.24333 6.166C9.45933 6.21267 10.5633 6.58733 11.3593 7.158C11.5647 6.952 11.846 6.83067 12.164 6.83067C12.8093 6.83067 13.3333 7.35467 13.3333 8C13.3333 8.47733 13.0433 8.88867 12.66 9.076C12.679 9.19057 12.6884 9.30653 12.688 9.42267C12.688 11.2187 10.6013 12.6693 8.01867 12.6693C5.436 12.6693 3.34933 11.2187 3.34933 9.42267C3.34933 9.30067 3.35933 9.17867 3.378 9.06667C3.17162 8.97509 2.99629 8.82552 2.87332 8.63616C2.75035 8.4468 2.68504 8.22579 2.68533 8C2.68533 7.35467 3.20933 6.83067 3.85467 6.83067C4.16333 6.83067 4.45333 6.96133 4.65933 7.15733C5.464 6.56867 6.578 6.204 7.822 6.166L8.412 3.378C8.42609 3.32432 8.45928 3.27763 8.50533 3.24667C8.55322 3.21879 8.60946 3.20886 8.664 3.21867L10.6013 3.63C10.6668 3.48957 10.7712 3.37088 10.9022 3.28804C11.0331 3.2052 11.1851 3.16168 11.34 3.16267ZM6.16667 8C5.70733 8 5.33333 8.37467 5.33333 8.83333C5.33333 9.29133 5.70733 9.66533 6.16667 9.66533C6.62467 9.66533 6.99867 9.29133 6.99867 8.83267C6.99867 8.374 6.62467 8 6.166 8H6.16667ZM9.83333 8C9.37533 8 9.00133 8.374 9.00133 8.83333C9.00133 9.29133 9.37533 9.66533 9.834 9.66533C10.2927 9.66533 10.6667 9.29133 10.6667 8.83267C10.6667 8.37467 10.292 8 9.83333 8ZM6.18933 10.66C6.13174 10.6597 6.07637 10.6823 6.03533 10.7227C5.99482 10.7638 5.97212 10.8193 5.97212 10.877C5.97212 10.9347 5.99482 10.9902 6.03533 11.0313C6.59667 11.5927 7.69133 11.64 8.00933 11.64C8.32733 11.64 9.41267 11.6027 9.98333 11.0313C10.0223 10.9904 10.0456 10.937 10.0491 10.8805C10.0527 10.8241 10.0362 10.7682 10.0027 10.7227C9.96148 10.682 9.90591 10.6591 9.848 10.6591C9.79009 10.6591 9.73452 10.682 9.69333 10.7227C9.32867 11.078 8.57067 11.2093 8.01867 11.2093C7.46667 11.2093 6.69933 11.0787 6.344 10.7227C6.32367 10.7024 6.29954 10.6864 6.273 10.6755C6.24645 10.6647 6.21802 10.6592 6.18933 10.6593V10.66Z" fill="#FF4500"/>
</g>
<defs>
<clipPath id="clip0_93_176">
<rect width="16" height="16" fill="white"/>
</clipPath>
</defs>
</svg>
