<svg width="16" height="16" viewBox="0 0 16 16" fill="none" xmlns="http://www.w3.org/2000/svg">
<g clip-path="url(#clip0_93_167)">
<path d="M9.31929 1.34554C10.1151 1.33331 10.9048 1.33942 11.6946 1.33331C11.7432 2.2683 12.0773 3.22162 12.7577 3.88161C13.4381 4.55994 14.3979 4.8716 15.3334 4.97549V7.43824C14.4586 7.40768 13.5778 7.22435 12.782 6.84547C12.4357 6.68658 12.1137 6.48492 11.7978 6.27714C11.7918 8.06156 11.8039 9.84598 11.7857 11.6243C11.7371 12.4798 11.4576 13.3293 10.9656 14.032C10.1698 15.2054 8.79077 15.9692 7.37533 15.9937C6.50662 16.0426 5.63791 15.8042 4.89678 15.3642C3.66965 14.637 2.80702 13.3048 2.67945 11.8748C2.6673 11.5693 2.66122 11.2637 2.67337 10.9643C2.78272 9.80321 3.35376 8.691 4.24069 7.93323C5.24912 7.05324 6.65849 6.63158 7.97674 6.88213C7.98889 7.78657 7.95244 8.691 7.95244 9.59543C7.35103 9.39988 6.64634 9.45488 6.11783 9.82154C5.73511 10.0721 5.44351 10.4571 5.29164 10.891C5.16407 11.2026 5.20052 11.5449 5.20659 11.8748C5.35239 12.8771 6.31222 13.7204 7.3328 13.6287C8.01319 13.6226 8.6632 13.2254 9.01554 12.6448C9.13096 12.4432 9.25854 12.2354 9.26461 11.9971C9.32536 10.9032 9.30106 9.81543 9.30714 8.72155C9.31321 6.25881 9.30106 3.80217 9.31929 1.34554Z" fill="#FF0050"/>
<path d="M7.98579 0.0122221C8.7816 0 9.57133 0.00611103 10.3611 0C10.4097 0.934988 10.7438 1.88831 11.4242 2.5483C12.1046 3.22663 13.0644 3.53829 13.9999 3.64218V6.10492C13.1251 6.07437 12.2443 5.89104 11.4485 5.51215C11.1022 5.35327 10.7802 5.1516 10.4643 4.94383C10.4583 6.72825 10.4704 8.51267 10.4522 10.291C10.4036 11.1465 10.1241 11.996 9.63208 12.6987C8.83627 13.872 7.45728 14.6359 6.04183 14.6604C5.17312 14.7093 4.30441 14.4709 3.56328 14.0309C2.33615 13.3037 1.47352 11.9715 1.34595 10.5415C1.3338 10.236 1.32772 9.93043 1.33987 9.63099C1.44922 8.46989 2.02026 7.35769 2.90719 6.59992C3.91562 5.71993 5.32499 5.29827 6.64324 5.54882C6.65539 6.45325 6.61894 7.35769 6.61894 8.26212C6.01753 8.06657 5.31284 8.12157 4.78433 8.48823C4.40161 8.73878 4.11002 9.12378 3.95815 9.55766C3.83057 9.86932 3.86702 10.2115 3.8731 10.5415C4.0189 11.5437 4.97873 12.3871 5.99931 12.2954C6.67969 12.2893 7.3297 11.8921 7.68205 11.3115C7.79747 11.1099 7.92504 10.9021 7.93112 10.6638C7.99187 9.56988 7.96757 8.48212 7.97364 7.38824C7.97972 4.92549 7.96757 2.46886 7.98579 0.0122221Z" fill="#09F2EB"/>
<path d="M8.65254 0.678909C9.44835 0.666687 10.2381 0.672798 11.0278 0.666687C11.0764 1.60168 11.4105 2.555 12.0909 3.21499C12.7713 3.89331 13.7311 4.20498 14.6667 4.30886V6.77161C13.7919 6.74106 12.911 6.55772 12.1152 6.17884C11.769 6.01995 11.447 5.81829 11.1311 5.61051C11.125 7.39494 11.1372 9.17936 11.1189 10.9577C11.0703 11.8132 10.7909 12.6626 10.2988 13.3654C9.50302 14.5387 8.12402 15.3026 6.70858 15.3271C5.83987 15.3759 4.97116 15.1376 4.23003 14.6976C3.0029 13.9704 2.14027 12.6382 2.0127 11.2082C2.00055 10.9027 1.99447 10.5971 2.00662 10.2977C2.11597 9.13658 2.68701 8.02437 3.57394 7.2666C4.58237 6.38662 5.99174 5.96495 7.30999 6.21551C7.32214 7.11994 7.28569 8.02437 7.28569 8.92881C6.68428 8.73325 5.97959 8.78825 5.45108 9.15491C5.06836 9.40547 4.77677 9.79046 4.62489 10.2243C4.49732 10.536 4.53377 10.8782 4.53985 11.2082C4.68564 12.2104 5.64547 13.0538 6.66605 12.9621C7.34644 12.956 7.99645 12.5588 8.34879 11.9782C8.46422 11.7765 8.59179 11.5688 8.59786 11.3304C8.65861 10.2366 8.63431 9.1488 8.64039 8.05493C8.64646 5.59218 8.63431 3.13554 8.65254 0.678909Z" fill="black"/>
</g>
<defs>
<clipPath id="clip0_93_167">
<rect width="16" height="16" fill="white"/>
</clipPath>
</defs>
</svg>
