<svg width="64" height="64" viewBox="0 0 64 64" fill="none" xmlns="http://www.w3.org/2000/svg">
<g clip-path="url(#clip0_3_188)">
<path d="M33.4 0.0533333C36.8934 0 40.36 0.0266667 43.8267 0C44.04 4.08 45.5067 8.24 48.4934 11.12C51.48 14.08 55.6934 15.44 59.8 15.8933V26.64C55.96 26.5067 52.0934 25.7067 48.6 24.0533C47.08 23.36 45.6667 22.48 44.28 21.5733C44.2534 29.36 44.3067 37.1467 44.2267 44.9067C44.0134 48.64 42.7867 52.3467 40.6267 55.4133C37.1334 60.5333 31.08 63.8667 24.8667 63.9733C21.0534 64.1867 17.24 63.1467 13.9867 61.2267C8.60004 58.0533 4.81337 52.24 4.25337 46C4.20004 44.6667 4.17337 43.3333 4.2267 42.0267C4.7067 36.96 7.21337 32.1067 11.1067 28.8C15.5334 24.96 21.72 23.12 27.5067 24.2133C27.56 28.16 27.4 32.1067 27.4 36.0533C24.76 35.2 21.6667 35.44 19.3467 37.04C17.6667 38.1333 16.3867 39.8133 15.72 41.7067C15.16 43.0667 15.32 44.56 15.3467 46C15.9867 50.3733 20.2 54.0533 24.68 53.6533C27.6667 53.6267 30.52 51.8933 32.0667 49.36C32.5734 48.48 33.1334 47.5733 33.16 46.5333C33.4267 41.76 33.32 37.0133 33.3467 32.24C33.3734 21.4933 33.32 10.7733 33.4 0.0533333Z" fill="white"/>
</g>
<defs>
<clipPath id="clip0_3_188">
<rect width="64" height="64" fill="white"/>
</clipPath>
</defs>
</svg>
