<svg width="16" height="16" viewBox="0 0 16 16" fill="none" xmlns="http://www.w3.org/2000/svg">
<path d="M15.9687 3.04668C15.3697 3.31042 14.7351 3.48451 14.0853 3.56335C14.7694 3.15218 15.2816 2.50738 15.5273 1.74802C14.8933 2.11802 14.1907 2.38735 13.4427 2.53735C12.9492 2.00964 12.2952 1.65963 11.5824 1.54169C10.8696 1.42374 10.1378 1.54445 9.50062 1.88508C8.86345 2.2257 8.35657 2.76718 8.0587 3.42543C7.76083 4.08368 7.68864 4.82186 7.85333 5.52535C5.12667 5.39668 2.71133 4.08668 1.09333 2.10802C0.799196 2.60789 0.645776 3.17803 0.649333 3.75802C0.649333 4.89802 1.22933 5.90002 2.108 6.48868C1.58724 6.47211 1.07798 6.33131 0.622667 6.07802V6.11802C0.622371 6.87561 0.884179 7.60998 1.36367 8.19652C1.84316 8.78307 2.51081 9.18567 3.25333 9.33602C2.7722 9.46494 2.26828 9.4843 1.77867 9.39268C1.98941 10.0447 2.39844 10.6146 2.94868 11.023C3.49891 11.4314 4.1629 11.6578 4.848 11.6707C3.68769 12.5813 2.25498 13.0756 0.78 13.074C0.52 13.074 0.260667 13.0587 0 13.0294C1.50381 13.9922 3.25234 14.5034 5.038 14.502C11.0733 14.502 14.37 9.50469 14.37 5.17868C14.37 5.03868 14.37 4.89868 14.36 4.75868C15.004 4.29526 15.5595 3.7199 16 3.06002L15.9687 3.04668Z" fill="#1DA1F2"/>
</svg>
