<svg width="16" height="16" viewBox="0 0 16 16" fill="none" xmlns="http://www.w3.org/2000/svg">
<path d="M15.6653 4.71798C15.5749 4.38575 15.3967 4.08253 15.1484 3.83867C14.9001 3.59481 14.5905 3.41889 14.2507 3.3285C13.0033 3 8 3 8 3C8 3 2.99667 3 1.74867 3.3285C1.40894 3.41904 1.09953 3.59504 0.851385 3.83888C0.603241 4.08272 0.425061 4.38586 0.334667 4.71798C0 5.94352 0 8.5 0 8.5C0 8.5 0 11.0565 0.334667 12.282C0.425057 12.6143 0.603317 12.9175 0.851594 13.1613C1.09987 13.4052 1.40945 13.5811 1.74933 13.6715C2.99667 14 8 14 8 14C8 14 13.0033 14 14.2513 13.6715C14.5912 13.5812 14.9009 13.4053 15.1491 13.1614C15.3974 12.9175 15.5757 12.6143 15.666 12.282C16 11.0565 16 8.5 16 8.5C16 8.5 16 5.94352 15.6653 4.71798ZM6.36333 10.821V6.17901L10.5453 8.5L6.36333 10.821Z" fill="#FF0000"/>
</svg>
